<svg xmlns="http://www.w3.org/2000/svg" version="1.1" xmlns:xlink="http://www.w3.org/1999/xlink" xmlns:svgjs="http://svgjs.dev/svgjs" width="1440" height="560" preserveAspectRatio="none" viewBox="0 0 1440 560"><g mask="url(&quot;#SvgjsMask1197&quot;)" fill="none"><use xlink:href="#SvgjsG1201" transform="translate(0, 0)" fill="rgba(207, 207, 207, 1)"></use><use xlink:href="#SvgjsG1201" transform="translate(1280, 0)" fill="rgba(207, 207, 207, 1)"></use></g><defs><mask id="SvgjsMask1197"><rect width="1440" height="560" fill="#ffffff"></rect></mask><g id="SvgjsG1198"><path d="M0.672 6.194h14.656v3.614H0.672z"></path><path d="M6.194 0.672h3.614v14.656H6.194z"></path></g><g id="SvgjsG1199"><path d="M0.778 8.111a7.222 7.222 0 1 0 14.444 0 7.222 7.222 0 1 0-14.444 0"></path></g><g id="SvgjsG1200"><path d="M15.818 14.884H0.137L7.978 1.3 15.818 14.884zM3.252 13.084h9.45L7.978 4.899 3.252 13.084z" fill-rule="evenodd"></path></g><g id="SvgjsG1201"><use xlink:href="#SvgjsG1198" transform="translate(0, 0) scale(2)" fill="rgba(207, 207, 207, 1)"></use><use xlink:href="#SvgjsG1199" transform="translate(0, 128) scale(2)" fill="rgba(207, 207, 207, 1)"></use><use xlink:href="#SvgjsG1198" transform="translate(0, 256) scale(2)" fill="rgba(207, 207, 207, 1)"></use><use xlink:href="#SvgjsG1200" transform="translate(0, 384) scale(2)" fill="rgba(207, 207, 207, 1)"></use><use xlink:href="#SvgjsG1199" transform="translate(0, 512) scale(2)" fill="rgba(207, 207, 207, 1)"></use><use xlink:href="#SvgjsG1200" transform="translate(128, 0) scale(2)" fill="rgba(207, 207, 207, 1)"></use><use xlink:href="#SvgjsG1199" transform="translate(128, 128) scale(2)" fill="rgba(207, 207, 207, 1)"></use><use xlink:href="#SvgjsG1198" transform="translate(128, 256) scale(2)" fill="rgba(207, 207, 207, 1)"></use><use xlink:href="#SvgjsG1200" transform="translate(128, 384) scale(2)" fill="rgba(207, 207, 207, 1)"></use><use xlink:href="#SvgjsG1198" transform="translate(128, 512) scale(2)" fill="rgba(207, 207, 207, 1)"></use><use xlink:href="#SvgjsG1198" transform="translate(256, 0) scale(2)" fill="rgba(207, 207, 207, 1)"></use><use xlink:href="#SvgjsG1198" transform="translate(256, 128) scale(2)" fill="rgba(207, 207, 207, 1)"></use><use xlink:href="#SvgjsG1200" transform="translate(256, 256) scale(2)" fill="rgba(207, 207, 207, 1)"></use><use xlink:href="#SvgjsG1200" transform="translate(256, 384) scale(2)" fill="rgba(207, 207, 207, 1)"></use><use xlink:href="#SvgjsG1198" transform="translate(256, 512) scale(2)" fill="rgba(207, 207, 207, 1)"></use><use xlink:href="#SvgjsG1199" transform="translate(384, 0) scale(2)" fill="rgba(207, 207, 207, 1)"></use><use xlink:href="#SvgjsG1198" transform="translate(384, 128) scale(2)" fill="rgba(207, 207, 207, 1)"></use><use xlink:href="#SvgjsG1200" transform="translate(384, 256) scale(2)" fill="rgba(207, 207, 207, 1)"></use><use xlink:href="#SvgjsG1200" transform="translate(384, 384) scale(2)" fill="rgba(207, 207, 207, 1)"></use><use xlink:href="#SvgjsG1199" transform="translate(384, 512) scale(2)" fill="rgba(207, 207, 207, 1)"></use><use xlink:href="#SvgjsG1198" transform="translate(512, 0) scale(2)" fill="rgba(207, 207, 207, 1)"></use><use xlink:href="#SvgjsG1198" transform="translate(512, 128) scale(2)" fill="rgba(207, 207, 207, 1)"></use><use xlink:href="#SvgjsG1198" transform="translate(512, 256) scale(2)" fill="rgba(207, 207, 207, 1)"></use><use xlink:href="#SvgjsG1199" transform="translate(512, 384) scale(2)" fill="rgba(207, 207, 207, 1)"></use><use xlink:href="#SvgjsG1198" transform="translate(512, 512) scale(2)" fill="rgba(207, 207, 207, 1)"></use><use xlink:href="#SvgjsG1200" transform="translate(640, 0) scale(2)" fill="rgba(207, 207, 207, 1)"></use><use xlink:href="#SvgjsG1200" transform="translate(640, 128) scale(2)" fill="rgba(207, 207, 207, 1)"></use><use xlink:href="#SvgjsG1198" transform="translate(640, 256) scale(2)" fill="rgba(207, 207, 207, 1)"></use><use xlink:href="#SvgjsG1200" transform="translate(640, 384) scale(2)" fill="rgba(207, 207, 207, 1)"></use><use xlink:href="#SvgjsG1200" transform="translate(640, 512) scale(2)" fill="rgba(207, 207, 207, 1)"></use><use xlink:href="#SvgjsG1198" transform="translate(768, 0) scale(2)" fill="rgba(207, 207, 207, 1)"></use><use xlink:href="#SvgjsG1199" transform="translate(768, 128) scale(2)" fill="rgba(207, 207, 207, 1)"></use><use xlink:href="#SvgjsG1200" transform="translate(768, 256) scale(2)" fill="rgba(207, 207, 207, 1)"></use><use xlink:href="#SvgjsG1198" transform="translate(768, 384) scale(2)" fill="rgba(207, 207, 207, 1)"></use><use xlink:href="#SvgjsG1199" transform="translate(768, 512) scale(2)" fill="rgba(207, 207, 207, 1)"></use><use xlink:href="#SvgjsG1200" transform="translate(896, 0) scale(2)" fill="rgba(207, 207, 207, 1)"></use><use xlink:href="#SvgjsG1198" transform="translate(896, 128) scale(2)" fill="rgba(207, 207, 207, 1)"></use><use xlink:href="#SvgjsG1199" transform="translate(896, 256) scale(2)" fill="rgba(207, 207, 207, 1)"></use><use xlink:href="#SvgjsG1198" transform="translate(896, 384) scale(2)" fill="rgba(207, 207, 207, 1)"></use><use xlink:href="#SvgjsG1200" transform="translate(896, 512) scale(2)" fill="rgba(207, 207, 207, 1)"></use><use xlink:href="#SvgjsG1198" transform="translate(1024, 0) scale(2)" fill="rgba(207, 207, 207, 1)"></use><use xlink:href="#SvgjsG1200" transform="translate(1024, 128) scale(2)" fill="rgba(207, 207, 207, 1)"></use><use xlink:href="#SvgjsG1199" transform="translate(1024, 256) scale(2)" fill="rgba(207, 207, 207, 1)"></use><use xlink:href="#SvgjsG1200" transform="translate(1024, 384) scale(2)" fill="rgba(207, 207, 207, 1)"></use><use xlink:href="#SvgjsG1200" transform="translate(1024, 512) scale(2)" fill="rgba(207, 207, 207, 1)"></use><use xlink:href="#SvgjsG1198" transform="translate(1152, 0) scale(2)" fill="rgba(207, 207, 207, 1)"></use><use xlink:href="#SvgjsG1199" transform="translate(1152, 128) scale(2)" fill="rgba(207, 207, 207, 1)"></use><use xlink:href="#SvgjsG1199" transform="translate(1152, 256) scale(2)" fill="rgba(207, 207, 207, 1)"></use><use xlink:href="#SvgjsG1200" transform="translate(1152, 384) scale(2)" fill="rgba(207, 207, 207, 1)"></use><use xlink:href="#SvgjsG1199" transform="translate(1152, 512) scale(2)" fill="rgba(207, 207, 207, 1)"></use></g></defs></svg>